<svg width="150" height="152" viewBox="0 0 150 152" fill="none" xmlns="http://www.w3.org/2000/svg">
<g filter="url(#filter0_dd_204_319)">
<path d="M63.947 44.527C64.724 40.4563 69.8314 39.0435 72.5898 42.1363L83.2881 54.131C84.3835 55.3591 86.0131 55.9696 87.6458 55.7635L103.592 53.7505C107.703 53.2315 110.625 57.6523 108.536 61.2315L100.435 75.1127C99.605 76.534 99.528 78.2725 100.229 79.7616L107.071 94.305C108.835 98.0549 105.533 102.2 101.484 101.319L85.7783 97.9037C84.1702 97.5539 82.493 98.0179 81.2933 99.1443L69.576 110.146C66.5547 112.982 61.5923 111.123 61.1785 107L59.5738 91.0075C59.4095 89.3701 58.4499 87.9184 57.0079 87.1254L42.9241 79.3812C39.2928 77.3844 39.5274 72.0903 43.3211 70.4226L58.0347 63.9545C59.5413 63.2923 60.6254 61.9311 60.9339 60.3146L63.947 44.527Z" fill="#FFE6F3"/>
</g>
<defs>
<filter id="filter0_dd_204_319" x="0.333008" y="0.460144" width="148.896" height="151.047" filterUnits="userSpaceOnUse" color-interpolation-filters="sRGB">
<feFlood flood-opacity="0" result="BackgroundImageFix"/>
<feColorMatrix in="SourceAlpha" type="matrix" values="0 0 0 0 0 0 0 0 0 0 0 0 0 0 0 0 0 0 127 0" result="hardAlpha"/>
<feOffset/>
<feGaussianBlur stdDeviation="20"/>
<feComposite in2="hardAlpha" operator="out"/>
<feColorMatrix type="matrix" values="0 0 0 0 1 0 0 0 0 0.901961 0 0 0 0 0.952941 0 0 0 1 0"/>
<feBlend mode="normal" in2="BackgroundImageFix" result="effect1_dropShadow_204_319"/>
<feColorMatrix in="SourceAlpha" type="matrix" values="0 0 0 0 0 0 0 0 0 0 0 0 0 0 0 0 0 0 127 0" result="hardAlpha"/>
<feOffset dy="4"/>
<feGaussianBlur stdDeviation="2"/>
<feComposite in2="hardAlpha" operator="out"/>
<feColorMatrix type="matrix" values="0 0 0 0 0 0 0 0 0 0 0 0 0 0 0 0 0 0 0.25 0"/>
<feBlend mode="normal" in2="effect1_dropShadow_204_319" result="effect2_dropShadow_204_319"/>
<feBlend mode="normal" in="SourceGraphic" in2="effect2_dropShadow_204_319" result="shape"/>
</filter>
</defs>
</svg>
