<svg width="116" height="122" viewBox="0 0 116 122" fill="none" xmlns="http://www.w3.org/2000/svg">
<g filter="url(#filter0_d_204_304)">
<path d="M56.072 41.9902C56.6119 40.0326 59.3881 40.0326 59.928 41.9902L63.0883 53.4482C63.2509 54.0377 63.6742 54.5204 64.2375 54.7585L74.643 59.1579C76.2712 59.8463 76.2712 62.1537 74.643 62.8421L64.2375 67.2415C63.6742 67.4796 63.2509 67.9623 63.0883 68.5518L59.928 80.0098C59.3881 81.9674 56.6119 81.9674 56.072 80.0098L52.9117 68.5518C52.7491 67.9623 52.3258 67.4796 51.7625 67.2415L41.357 62.8421C39.7288 62.1537 39.7288 59.8463 41.357 59.1579L51.7625 54.7585C52.3258 54.5204 52.7491 54.0377 52.9117 53.4482L56.072 41.9902Z" fill="white"/>
</g>
<defs>
<filter id="filter0_d_204_304" x="0.135742" y="0.521973" width="115.729" height="120.956" filterUnits="userSpaceOnUse" color-interpolation-filters="sRGB">
<feFlood flood-opacity="0" result="BackgroundImageFix"/>
<feColorMatrix in="SourceAlpha" type="matrix" values="0 0 0 0 0 0 0 0 0 0 0 0 0 0 0 0 0 0 127 0" result="hardAlpha"/>
<feOffset/>
<feGaussianBlur stdDeviation="20"/>
<feComposite in2="hardAlpha" operator="out"/>
<feColorMatrix type="matrix" values="0 0 0 0 1 0 0 0 0 1 0 0 0 0 1 0 0 0 1 0"/>
<feBlend mode="normal" in2="BackgroundImageFix" result="effect1_dropShadow_204_304"/>
<feBlend mode="normal" in="SourceGraphic" in2="effect1_dropShadow_204_304" result="shape"/>
</filter>
</defs>
</svg>
